# xmcd CD database file
#
# Track frame offsets:
#	150
#	23609
#	53053
#	75683
#	94868
#	113020
#	132498
#	161008
#	186505
#	214872
#	226988
#
# Disc length: 3344 seconds
#
# Revision: 0
# Processed by: cddbd v1.5.2PL0 Copyright (c) Steve Scherf et al.
# Submitted via: CDex 1.70beta2
#
DISCID=8f0d0e0b
DTITLE=Teodora Enache - Swing Me To The Moon
DYEAR=2007
DGENRE=Jazz
TTITLE0=On the sunny side of the street (Jimmy McHugh - Dorothy Fields)
TTITLE1=Stardust (Hoagy Carmichael)
TTITLE2=Love For Sale (Cole Porter)
TTITLE3=Now's The Time (Charlie Parker)
TTITLE4=Stormy Weather (Harold Arlen - Ted Koehler)
TTITLE5=The Lady Is A Tramp (Richard Rogers - Lorenz Hart)
TTITLE6=Ain't Misbehavin' (Thomas Fats Waller - Andy Razaf)
TTITLE7=Don't Get Around Much Anymore (Duke Ellington - Bob Russell)
TTITLE8=You Go To My Head (Fred Coots - Ronnie)
TTITLE9=Sometimes I'm Happy (Vincent Youmans - Leo Robin)
TTITLE10=There Will Never Be Another You (M. Gordon - H. Warren)
EXTD=YEAR: 2007
EXTT0=
EXTT1=
EXTT2=
EXTT3=
EXTT4=
EXTT5=
EXTT6=
EXTT7=
EXTT8=
EXTT9=
EXTT10=
PLAYORDER=
